<mxfile host="app.diagrams.net" agent="Mozilla/5.0 (X11; Linux x86_64) AppleWebKit/537.36 (KHTML, like Gecko) Chrome/133.0.0.0 Safari/537.36" version="26.1.0">
  <diagram name="Page-1" id="NJ4H-yyJKGQcKnzE2MWu">
    <mxGraphModel dx="1687" dy="1073" grid="1" gridSize="10" guides="1" tooltips="1" connect="1" arrows="1" fold="1" page="1" pageScale="1" pageWidth="850" pageHeight="1100" math="0" shadow="0">
      <root>
        <mxCell id="0" />
        <mxCell id="1" parent="0" />
        <mxCell id="t21J4eiGlBl-V46B6xAk-14" style="edgeStyle=orthogonalEdgeStyle;rounded=0;orthogonalLoop=1;jettySize=auto;html=1;exitX=1;exitY=0.5;exitDx=0;exitDy=0;entryX=0;entryY=0.5;entryDx=0;entryDy=0;" edge="1" parent="1" source="t21J4eiGlBl-V46B6xAk-1" target="t21J4eiGlBl-V46B6xAk-5">
          <mxGeometry relative="1" as="geometry" />
        </mxCell>
        <mxCell id="t21J4eiGlBl-V46B6xAk-1" value="Pub-Video" style="ellipse;whiteSpace=wrap;html=1;fillColor=#d5e8d4;strokeColor=#82b366;" vertex="1" parent="1">
          <mxGeometry x="450" y="130" width="120" height="80" as="geometry" />
        </mxCell>
        <mxCell id="t21J4eiGlBl-V46B6xAk-30" style="edgeStyle=orthogonalEdgeStyle;rounded=0;orthogonalLoop=1;jettySize=auto;html=1;" edge="1" parent="1" source="t21J4eiGlBl-V46B6xAk-2" target="t21J4eiGlBl-V46B6xAk-6">
          <mxGeometry relative="1" as="geometry" />
        </mxCell>
        <mxCell id="t21J4eiGlBl-V46B6xAk-2" value="Pub-UWB" style="ellipse;whiteSpace=wrap;html=1;fillColor=#fff2cc;strokeColor=#d6b656;" vertex="1" parent="1">
          <mxGeometry x="450" y="440" width="120" height="80" as="geometry" />
        </mxCell>
        <mxCell id="t21J4eiGlBl-V46B6xAk-22" style="edgeStyle=orthogonalEdgeStyle;rounded=0;orthogonalLoop=1;jettySize=auto;html=1;entryX=0;entryY=0.5;entryDx=0;entryDy=0;" edge="1" parent="1" source="t21J4eiGlBl-V46B6xAk-3" target="t21J4eiGlBl-V46B6xAk-8">
          <mxGeometry relative="1" as="geometry" />
        </mxCell>
        <mxCell id="t21J4eiGlBl-V46B6xAk-3" value="Pub-Lidar" style="ellipse;whiteSpace=wrap;html=1;fillColor=#dae8fc;strokeColor=#6c8ebf;" vertex="1" parent="1">
          <mxGeometry x="450" y="240" width="120" height="80" as="geometry" />
        </mxCell>
        <mxCell id="t21J4eiGlBl-V46B6xAk-29" style="edgeStyle=orthogonalEdgeStyle;rounded=0;orthogonalLoop=1;jettySize=auto;html=1;" edge="1" parent="1" source="t21J4eiGlBl-V46B6xAk-4" target="t21J4eiGlBl-V46B6xAk-7">
          <mxGeometry relative="1" as="geometry" />
        </mxCell>
        <mxCell id="t21J4eiGlBl-V46B6xAk-4" value="Pub-IMU" style="ellipse;whiteSpace=wrap;html=1;fillColor=#ffe6cc;strokeColor=#d79b00;" vertex="1" parent="1">
          <mxGeometry x="450" y="340" width="120" height="80" as="geometry" />
        </mxCell>
        <mxCell id="t21J4eiGlBl-V46B6xAk-15" style="edgeStyle=orthogonalEdgeStyle;rounded=0;orthogonalLoop=1;jettySize=auto;html=1;exitX=1;exitY=0.5;exitDx=0;exitDy=0;entryX=0;entryY=0.5;entryDx=0;entryDy=0;" edge="1" parent="1" source="t21J4eiGlBl-V46B6xAk-5" target="t21J4eiGlBl-V46B6xAk-10">
          <mxGeometry relative="1" as="geometry" />
        </mxCell>
        <mxCell id="t21J4eiGlBl-V46B6xAk-5" value="Topic-Video" style="rounded=1;whiteSpace=wrap;html=1;fillColor=#d5e8d4;strokeColor=#82b366;" vertex="1" parent="1">
          <mxGeometry x="610" y="140" width="120" height="60" as="geometry" />
        </mxCell>
        <mxCell id="t21J4eiGlBl-V46B6xAk-31" style="edgeStyle=orthogonalEdgeStyle;rounded=0;orthogonalLoop=1;jettySize=auto;html=1;" edge="1" parent="1" source="t21J4eiGlBl-V46B6xAk-6" target="t21J4eiGlBl-V46B6xAk-11">
          <mxGeometry relative="1" as="geometry" />
        </mxCell>
        <mxCell id="t21J4eiGlBl-V46B6xAk-6" value="Topic-UWB" style="rounded=1;whiteSpace=wrap;html=1;fillColor=#fff2cc;strokeColor=#d6b656;" vertex="1" parent="1">
          <mxGeometry x="610" y="450" width="120" height="60" as="geometry" />
        </mxCell>
        <mxCell id="t21J4eiGlBl-V46B6xAk-28" style="edgeStyle=orthogonalEdgeStyle;rounded=0;orthogonalLoop=1;jettySize=auto;html=1;entryX=0;entryY=0.5;entryDx=0;entryDy=0;" edge="1" parent="1" source="t21J4eiGlBl-V46B6xAk-7" target="t21J4eiGlBl-V46B6xAk-13">
          <mxGeometry relative="1" as="geometry" />
        </mxCell>
        <mxCell id="t21J4eiGlBl-V46B6xAk-7" value="Topic-IMU" style="rounded=1;whiteSpace=wrap;html=1;fillColor=#ffe6cc;strokeColor=#d79b00;" vertex="1" parent="1">
          <mxGeometry x="610" y="350" width="120" height="60" as="geometry" />
        </mxCell>
        <mxCell id="t21J4eiGlBl-V46B6xAk-23" style="edgeStyle=orthogonalEdgeStyle;rounded=0;orthogonalLoop=1;jettySize=auto;html=1;entryX=0;entryY=0.5;entryDx=0;entryDy=0;" edge="1" parent="1" source="t21J4eiGlBl-V46B6xAk-8" target="t21J4eiGlBl-V46B6xAk-12">
          <mxGeometry relative="1" as="geometry" />
        </mxCell>
        <mxCell id="t21J4eiGlBl-V46B6xAk-8" value="Topic-Lidar" style="rounded=1;whiteSpace=wrap;html=1;fillColor=#dae8fc;strokeColor=#6c8ebf;" vertex="1" parent="1">
          <mxGeometry x="610" y="250" width="120" height="60" as="geometry" />
        </mxCell>
        <mxCell id="t21J4eiGlBl-V46B6xAk-10" value="Sub-Video" style="ellipse;whiteSpace=wrap;html=1;fillColor=#d5e8d4;strokeColor=#82b366;" vertex="1" parent="1">
          <mxGeometry x="780" y="130" width="120" height="80" as="geometry" />
        </mxCell>
        <mxCell id="t21J4eiGlBl-V46B6xAk-11" value="Sub-UWB" style="ellipse;whiteSpace=wrap;html=1;fillColor=#fff2cc;strokeColor=#d6b656;" vertex="1" parent="1">
          <mxGeometry x="780" y="440" width="120" height="80" as="geometry" />
        </mxCell>
        <mxCell id="t21J4eiGlBl-V46B6xAk-12" value="Sub-Lidar" style="ellipse;whiteSpace=wrap;html=1;fillColor=#dae8fc;strokeColor=#6c8ebf;" vertex="1" parent="1">
          <mxGeometry x="780" y="240" width="120" height="80" as="geometry" />
        </mxCell>
        <mxCell id="t21J4eiGlBl-V46B6xAk-13" value="Sub-IMU" style="ellipse;whiteSpace=wrap;html=1;fillColor=#ffe6cc;strokeColor=#d79b00;" vertex="1" parent="1">
          <mxGeometry x="780" y="340" width="120" height="80" as="geometry" />
        </mxCell>
        <mxCell id="t21J4eiGlBl-V46B6xAk-19" style="edgeStyle=orthogonalEdgeStyle;rounded=0;orthogonalLoop=1;jettySize=auto;html=1;" edge="1" parent="1" source="t21J4eiGlBl-V46B6xAk-16" target="t21J4eiGlBl-V46B6xAk-18">
          <mxGeometry relative="1" as="geometry" />
        </mxCell>
        <mxCell id="t21J4eiGlBl-V46B6xAk-16" value="Python-GUI" style="shape=step;perimeter=stepPerimeter;whiteSpace=wrap;html=1;fixedSize=1;fillColor=#d0cee2;strokeColor=#56517e;" vertex="1" parent="1">
          <mxGeometry x="1090" y="505" width="120" height="80" as="geometry" />
        </mxCell>
        <mxCell id="t21J4eiGlBl-V46B6xAk-18" value="User" style="shape=umlActor;verticalLabelPosition=bottom;verticalAlign=top;html=1;outlineConnect=0;" vertex="1" parent="1">
          <mxGeometry x="950" y="640" width="90" height="160" as="geometry" />
        </mxCell>
        <mxCell id="t21J4eiGlBl-V46B6xAk-41" style="edgeStyle=orthogonalEdgeStyle;rounded=0;orthogonalLoop=1;jettySize=auto;html=1;" edge="1" parent="1" source="t21J4eiGlBl-V46B6xAk-35" target="t21J4eiGlBl-V46B6xAk-40">
          <mxGeometry relative="1" as="geometry" />
        </mxCell>
        <mxCell id="t21J4eiGlBl-V46B6xAk-35" value="Motor Controller" style="shape=step;perimeter=stepPerimeter;whiteSpace=wrap;html=1;fixedSize=1;fillColor=#d0cee2;strokeColor=#56517e;" vertex="1" parent="1">
          <mxGeometry x="380" y="690" width="150" height="80" as="geometry" />
        </mxCell>
        <mxCell id="t21J4eiGlBl-V46B6xAk-39" style="edgeStyle=orthogonalEdgeStyle;rounded=0;orthogonalLoop=1;jettySize=auto;html=1;entryX=0;entryY=0.75;entryDx=0;entryDy=0;" edge="1" parent="1" source="t21J4eiGlBl-V46B6xAk-36" target="t21J4eiGlBl-V46B6xAk-35">
          <mxGeometry relative="1" as="geometry" />
        </mxCell>
        <mxCell id="t21J4eiGlBl-V46B6xAk-36" value="Sub-IMU" style="ellipse;whiteSpace=wrap;html=1;fillColor=#ffe6cc;strokeColor=#d79b00;" vertex="1" parent="1">
          <mxGeometry x="110" y="740" width="120" height="80" as="geometry" />
        </mxCell>
        <mxCell id="t21J4eiGlBl-V46B6xAk-38" style="edgeStyle=orthogonalEdgeStyle;rounded=0;orthogonalLoop=1;jettySize=auto;html=1;entryX=0;entryY=0.25;entryDx=0;entryDy=0;" edge="1" parent="1" source="t21J4eiGlBl-V46B6xAk-37" target="t21J4eiGlBl-V46B6xAk-35">
          <mxGeometry relative="1" as="geometry" />
        </mxCell>
        <mxCell id="t21J4eiGlBl-V46B6xAk-37" value="Sub-Lidar" style="ellipse;whiteSpace=wrap;html=1;fillColor=#dae8fc;strokeColor=#6c8ebf;" vertex="1" parent="1">
          <mxGeometry x="110" y="650" width="120" height="80" as="geometry" />
        </mxCell>
        <mxCell id="t21J4eiGlBl-V46B6xAk-40" value="Legs" style="rhombus;whiteSpace=wrap;html=1;fillColor=#bac8d3;strokeColor=#23445d;" vertex="1" parent="1">
          <mxGeometry x="610" y="560" width="140" height="130" as="geometry" />
        </mxCell>
        <mxCell id="t21J4eiGlBl-V46B6xAk-42" value="Remote" style="shape=parallelogram;perimeter=parallelogramPerimeter;whiteSpace=wrap;html=1;fixedSize=1;fillColor=#fad9d5;strokeColor=#ae4132;" vertex="1" parent="1">
          <mxGeometry x="50" y="515" width="120" height="60" as="geometry" />
        </mxCell>
        <mxCell id="t21J4eiGlBl-V46B6xAk-44" value="Bluetooth" style="ellipse;shape=cloud;whiteSpace=wrap;html=1;fillColor=#b1ddf0;strokeColor=#10739e;" vertex="1" parent="1">
          <mxGeometry x="190" y="470" width="120" height="80" as="geometry" />
        </mxCell>
        <mxCell id="t21J4eiGlBl-V46B6xAk-46" style="edgeStyle=orthogonalEdgeStyle;rounded=0;orthogonalLoop=1;jettySize=auto;html=1;entryX=0.16;entryY=0.55;entryDx=0;entryDy=0;entryPerimeter=0;" edge="1" parent="1" source="t21J4eiGlBl-V46B6xAk-42" target="t21J4eiGlBl-V46B6xAk-44">
          <mxGeometry relative="1" as="geometry" />
        </mxCell>
        <mxCell id="t21J4eiGlBl-V46B6xAk-49" value="WiFi&lt;div&gt;(ROS Server)&lt;/div&gt;" style="ellipse;shape=cloud;whiteSpace=wrap;html=1;fillColor=#b1ddf0;strokeColor=#10739e;" vertex="1" parent="1">
          <mxGeometry x="970" y="280" width="180" height="120" as="geometry" />
        </mxCell>
        <mxCell id="t21J4eiGlBl-V46B6xAk-50" style="edgeStyle=orthogonalEdgeStyle;rounded=0;orthogonalLoop=1;jettySize=auto;html=1;entryX=0.13;entryY=0.77;entryDx=0;entryDy=0;entryPerimeter=0;" edge="1" parent="1" source="t21J4eiGlBl-V46B6xAk-13" target="t21J4eiGlBl-V46B6xAk-49">
          <mxGeometry relative="1" as="geometry" />
        </mxCell>
        <mxCell id="t21J4eiGlBl-V46B6xAk-51" style="edgeStyle=orthogonalEdgeStyle;rounded=0;orthogonalLoop=1;jettySize=auto;html=1;entryX=0.07;entryY=0.4;entryDx=0;entryDy=0;entryPerimeter=0;" edge="1" parent="1" source="t21J4eiGlBl-V46B6xAk-12" target="t21J4eiGlBl-V46B6xAk-49">
          <mxGeometry relative="1" as="geometry" />
        </mxCell>
        <mxCell id="t21J4eiGlBl-V46B6xAk-52" style="edgeStyle=orthogonalEdgeStyle;rounded=0;orthogonalLoop=1;jettySize=auto;html=1;entryX=0.4;entryY=0.1;entryDx=0;entryDy=0;entryPerimeter=0;" edge="1" parent="1" source="t21J4eiGlBl-V46B6xAk-10" target="t21J4eiGlBl-V46B6xAk-49">
          <mxGeometry relative="1" as="geometry" />
        </mxCell>
        <mxCell id="t21J4eiGlBl-V46B6xAk-53" style="edgeStyle=orthogonalEdgeStyle;rounded=0;orthogonalLoop=1;jettySize=auto;html=1;entryX=0.383;entryY=0.908;entryDx=0;entryDy=0;entryPerimeter=0;" edge="1" parent="1" source="t21J4eiGlBl-V46B6xAk-11" target="t21J4eiGlBl-V46B6xAk-49">
          <mxGeometry relative="1" as="geometry" />
        </mxCell>
        <mxCell id="t21J4eiGlBl-V46B6xAk-57" style="edgeStyle=orthogonalEdgeStyle;rounded=0;orthogonalLoop=1;jettySize=auto;html=1;exitX=0.75;exitY=0;exitDx=0;exitDy=0;entryX=0;entryY=0.5;entryDx=0;entryDy=0;" edge="1" parent="1" source="t21J4eiGlBl-V46B6xAk-55" target="t21J4eiGlBl-V46B6xAk-1">
          <mxGeometry relative="1" as="geometry" />
        </mxCell>
        <mxCell id="t21J4eiGlBl-V46B6xAk-59" style="edgeStyle=orthogonalEdgeStyle;rounded=0;orthogonalLoop=1;jettySize=auto;html=1;exitX=1;exitY=0.75;exitDx=0;exitDy=0;entryX=0;entryY=0.5;entryDx=0;entryDy=0;" edge="1" parent="1" source="t21J4eiGlBl-V46B6xAk-55" target="t21J4eiGlBl-V46B6xAk-4">
          <mxGeometry relative="1" as="geometry" />
        </mxCell>
        <mxCell id="t21J4eiGlBl-V46B6xAk-67" style="edgeStyle=orthogonalEdgeStyle;rounded=0;orthogonalLoop=1;jettySize=auto;html=1;exitX=0.75;exitY=1;exitDx=0;exitDy=0;entryX=0;entryY=0.5;entryDx=0;entryDy=0;" edge="1" parent="1" source="t21J4eiGlBl-V46B6xAk-55" target="t21J4eiGlBl-V46B6xAk-2">
          <mxGeometry relative="1" as="geometry">
            <Array as="points">
              <mxPoint x="380" y="350" />
              <mxPoint x="380" y="480" />
            </Array>
          </mxGeometry>
        </mxCell>
        <mxCell id="t21J4eiGlBl-V46B6xAk-78" style="edgeStyle=orthogonalEdgeStyle;rounded=0;orthogonalLoop=1;jettySize=auto;html=1;exitX=0.75;exitY=1;exitDx=0;exitDy=0;" edge="1" parent="1" source="t21J4eiGlBl-V46B6xAk-55" target="t21J4eiGlBl-V46B6xAk-35">
          <mxGeometry relative="1" as="geometry" />
        </mxCell>
        <mxCell id="t21J4eiGlBl-V46B6xAk-55" value="PI" style="shape=parallelogram;perimeter=parallelogramPerimeter;whiteSpace=wrap;html=1;fixedSize=1;fillColor=#fad9d5;strokeColor=#ae4132;" vertex="1" parent="1">
          <mxGeometry x="230" y="290" width="120" height="60" as="geometry" />
        </mxCell>
        <mxCell id="t21J4eiGlBl-V46B6xAk-58" style="edgeStyle=orthogonalEdgeStyle;rounded=0;orthogonalLoop=1;jettySize=auto;html=1;exitX=1;exitY=0.25;exitDx=0;exitDy=0;entryX=0;entryY=0.5;entryDx=0;entryDy=0;" edge="1" parent="1" source="t21J4eiGlBl-V46B6xAk-55" target="t21J4eiGlBl-V46B6xAk-3">
          <mxGeometry relative="1" as="geometry" />
        </mxCell>
        <mxCell id="t21J4eiGlBl-V46B6xAk-61" value="UART" style="text;html=1;align=center;verticalAlign=middle;whiteSpace=wrap;rounded=0;" vertex="1" parent="1">
          <mxGeometry x="180" y="410" width="60" height="30" as="geometry" />
        </mxCell>
        <mxCell id="t21J4eiGlBl-V46B6xAk-62" value="I2C" style="text;html=1;align=center;verticalAlign=middle;whiteSpace=wrap;rounded=0;" vertex="1" parent="1">
          <mxGeometry x="170" y="290" width="60" height="30" as="geometry" />
        </mxCell>
        <mxCell id="t21J4eiGlBl-V46B6xAk-76" style="edgeStyle=orthogonalEdgeStyle;rounded=0;orthogonalLoop=1;jettySize=auto;html=1;entryX=0.25;entryY=1;entryDx=0;entryDy=0;" edge="1" parent="1" source="t21J4eiGlBl-V46B6xAk-64" target="t21J4eiGlBl-V46B6xAk-55">
          <mxGeometry relative="1" as="geometry" />
        </mxCell>
        <mxCell id="t21J4eiGlBl-V46B6xAk-64" value="UWB Module" style="shape=parallelogram;perimeter=parallelogramPerimeter;whiteSpace=wrap;html=1;fixedSize=1;fillColor=#fad9d5;strokeColor=#ae4132;" vertex="1" parent="1">
          <mxGeometry x="50" y="410" width="120" height="60" as="geometry" />
        </mxCell>
        <mxCell id="t21J4eiGlBl-V46B6xAk-72" style="edgeStyle=orthogonalEdgeStyle;rounded=0;orthogonalLoop=1;jettySize=auto;html=1;" edge="1" parent="1" source="t21J4eiGlBl-V46B6xAk-70" target="t21J4eiGlBl-V46B6xAk-55">
          <mxGeometry relative="1" as="geometry" />
        </mxCell>
        <mxCell id="t21J4eiGlBl-V46B6xAk-70" value="IMU" style="shape=parallelogram;perimeter=parallelogramPerimeter;whiteSpace=wrap;html=1;fixedSize=1;fillColor=#fad9d5;strokeColor=#ae4132;" vertex="1" parent="1">
          <mxGeometry x="50" y="290" width="120" height="60" as="geometry" />
        </mxCell>
        <mxCell id="t21J4eiGlBl-V46B6xAk-73" style="edgeStyle=orthogonalEdgeStyle;rounded=0;orthogonalLoop=1;jettySize=auto;html=1;" edge="1" parent="1" source="t21J4eiGlBl-V46B6xAk-71" target="t21J4eiGlBl-V46B6xAk-55">
          <mxGeometry relative="1" as="geometry" />
        </mxCell>
        <mxCell id="t21J4eiGlBl-V46B6xAk-71" value="LIDAR" style="shape=parallelogram;perimeter=parallelogramPerimeter;whiteSpace=wrap;html=1;fixedSize=1;fillColor=#fad9d5;strokeColor=#ae4132;" vertex="1" parent="1">
          <mxGeometry x="50" y="170" width="120" height="60" as="geometry" />
        </mxCell>
        <mxCell id="t21J4eiGlBl-V46B6xAk-75" value="UART" style="text;html=1;align=center;verticalAlign=middle;whiteSpace=wrap;rounded=0;" vertex="1" parent="1">
          <mxGeometry x="180" y="170" width="60" height="30" as="geometry" />
        </mxCell>
        <mxCell id="t21J4eiGlBl-V46B6xAk-77" style="edgeStyle=orthogonalEdgeStyle;rounded=0;orthogonalLoop=1;jettySize=auto;html=1;entryX=0.442;entryY=1;entryDx=0;entryDy=0;entryPerimeter=0;" edge="1" parent="1" source="t21J4eiGlBl-V46B6xAk-44" target="t21J4eiGlBl-V46B6xAk-55">
          <mxGeometry relative="1" as="geometry">
            <Array as="points">
              <mxPoint x="290" y="450" />
              <mxPoint x="283" y="450" />
            </Array>
          </mxGeometry>
        </mxCell>
        <mxCell id="t21J4eiGlBl-V46B6xAk-79" value="I2C" style="text;html=1;align=center;verticalAlign=middle;whiteSpace=wrap;rounded=0;" vertex="1" parent="1">
          <mxGeometry x="380" y="530" width="60" height="30" as="geometry" />
        </mxCell>
        <mxCell id="t21J4eiGlBl-V46B6xAk-81" style="edgeStyle=orthogonalEdgeStyle;rounded=0;orthogonalLoop=1;jettySize=auto;html=1;entryX=0.96;entryY=0.7;entryDx=0;entryDy=0;entryPerimeter=0;" edge="1" parent="1" source="t21J4eiGlBl-V46B6xAk-16" target="t21J4eiGlBl-V46B6xAk-49">
          <mxGeometry relative="1" as="geometry" />
        </mxCell>
      </root>
    </mxGraphModel>
  </diagram>
</mxfile>
